ISO-10303-21;
HEADER;
/* Generated by software containing ST-Developer
 * from STEP Tools, Inc. (www.steptools.com) 
 */

FILE_DESCRIPTION(
/* description */ (''),
/* implementation_level */ '2;1');

FILE_NAME(
/* name */ 'main body.step',
/* time_stamp */ '2026-07-24T15:51:07-04:00',
/* author */ (''),
/* organization */ (''),
/* preprocessor_version */ 'ST-DEVELOPER v20.1',
/* originating_system */ 'Autodesk Translation Framework v15.8.0.0',
/* authorisation */ '');

FILE_SCHEMA (('AUTOMOTIVE_DESIGN { 1 0 10303 214 3 1 1 }'));
ENDSEC;

DATA;
#10=MECHANICAL_DESIGN_GEOMETRIC_PRESENTATION_REPRESENTATION('',(#13),#690);
#11=SHAPE_REPRESENTATION_RELATIONSHIP('SRR','None',#697,#12);
#12=ADVANCED_BREP_SHAPE_REPRESENTATION('',(#14),#689);
#13=STYLED_ITEM('',(#706),#14);
#14=MANIFOLD_SOLID_BREP('Body7',#421);
#15=CYLINDRICAL_SURFACE('',#458,1.45);
#16=CYLINDRICAL_SURFACE('',#459,1.45);
#17=CYLINDRICAL_SURFACE('',#460,1.45);
#18=CYLINDRICAL_SURFACE('',#461,1.45);
#19=FACE_BOUND('',#66,.T.);
#20=FACE_BOUND('',#67,.T.);
#21=FACE_BOUND('',#68,.T.);
#22=FACE_BOUND('',#69,.T.);
#23=FACE_BOUND('',#72,.T.);
#24=FACE_BOUND('',#73,.T.);
#25=FACE_BOUND('',#74,.T.);
#26=FACE_BOUND('',#75,.T.);
#27=CIRCLE('',#444,1.45);
#28=CIRCLE('',#445,1.45);
#29=CIRCLE('',#446,1.45);
#30=CIRCLE('',#447,1.45);
#31=CIRCLE('',#450,1.45);
#32=CIRCLE('',#451,1.45);
#33=CIRCLE('',#452,1.45);
#34=CIRCLE('',#453,1.45);
#35=FACE_OUTER_BOUND('',#57,.T.);
#36=FACE_OUTER_BOUND('',#58,.T.);
#37=FACE_OUTER_BOUND('',#59,.T.);
#38=FACE_OUTER_BOUND('',#60,.T.);
#39=FACE_OUTER_BOUND('',#61,.T.);
#40=FACE_OUTER_BOUND('',#62,.T.);
#41=FACE_OUTER_BOUND('',#63,.T.);
#42=FACE_OUTER_BOUND('',#64,.T.);
#43=FACE_OUTER_BOUND('',#65,.T.);
#44=FACE_OUTER_BOUND('',#70,.T.);
#45=FACE_OUTER_BOUND('',#71,.T.);
#46=FACE_OUTER_BOUND('',#76,.T.);
#47=FACE_OUTER_BOUND('',#77,.T.);
#48=FACE_OUTER_BOUND('',#78,.T.);
#49=FACE_OUTER_BOUND('',#79,.T.);
#50=FACE_OUTER_BOUND('',#80,.T.);
#51=FACE_OUTER_BOUND('',#81,.T.);
#52=FACE_OUTER_BOUND('',#82,.T.);
#53=FACE_OUTER_BOUND('',#83,.T.);
#54=FACE_OUTER_BOUND('',#84,.T.);
#55=FACE_OUTER_BOUND('',#85,.T.);
#56=FACE_OUTER_BOUND('',#86,.T.);
#57=EDGE_LOOP('',(#271,#272,#273,#274));
#58=EDGE_LOOP('',(#275,#276,#277,#278));
#59=EDGE_LOOP('',(#279,#280,#281,#282));
#60=EDGE_LOOP('',(#283,#284,#285,#286));
#61=EDGE_LOOP('',(#287,#288,#289,#290));
#62=EDGE_LOOP('',(#291,#292,#293,#294));
#63=EDGE_LOOP('',(#295,#296,#297,#298));
#64=EDGE_LOOP('',(#299,#300,#301,#302,#303,#304,#305,#306));
#65=EDGE_LOOP('',(#307,#308,#309,#310,#311));
#66=EDGE_LOOP('',(#312));
#67=EDGE_LOOP('',(#313));
#68=EDGE_LOOP('',(#314));
#69=EDGE_LOOP('',(#315));
#70=EDGE_LOOP('',(#316,#317,#318,#319));
#71=EDGE_LOOP('',(#320,#321,#322,#323,#324,#325,#326,#327,#328,#329,#330));
#72=EDGE_LOOP('',(#331));
#73=EDGE_LOOP('',(#332));
#74=EDGE_LOOP('',(#333));
#75=EDGE_LOOP('',(#334));
#76=EDGE_LOOP('',(#335,#336,#337,#338));
#77=EDGE_LOOP('',(#339,#340,#341,#342));
#78=EDGE_LOOP('',(#343,#344,#345,#346));
#79=EDGE_LOOP('',(#347,#348,#349,#350));
#80=EDGE_LOOP('',(#351,#352,#353,#354));
#81=EDGE_LOOP('',(#355,#356,#357,#358));
#82=EDGE_LOOP('',(#359,#360,#361,#362));
#83=EDGE_LOOP('',(#363,#364,#365,#366));
#84=EDGE_LOOP('',(#367,#368,#369,#370));
#85=EDGE_LOOP('',(#371,#372,#373,#374));
#86=EDGE_LOOP('',(#375,#376,#377,#378,#379,#380));
#87=LINE('',#578,#134);
#88=LINE('',#580,#135);
#89=LINE('',#582,#136);
#90=LINE('',#583,#137);
#91=LINE('',#587,#138);
#92=LINE('',#589,#139);
#93=LINE('',#591,#140);
#94=LINE('',#592,#141);
#95=LINE('',#594,#142);
#96=LINE('',#595,#143);
#97=LINE('',#598,#144);
#98=LINE('',#600,#145);
#99=LINE('',#601,#146);
#100=LINE('',#603,#147);
#101=LINE('',#604,#148);
#102=LINE('',#607,#149);
#103=LINE('',#609,#150);
#104=LINE('',#610,#151);
#105=LINE('',#613,#152);
#106=LINE('',#614,#153);
#107=LINE('',#617,#154);
#108=LINE('',#619,#155);
#109=LINE('',#621,#156);
#110=LINE('',#623,#157);
#111=LINE('',#625,#158);
#112=LINE('',#626,#159);
#113=LINE('',#638,#160);
#114=LINE('',#640,#161);
#115=LINE('',#641,#162);
#116=LINE('',#644,#163);
#117=LINE('',#646,#164);
#118=LINE('',#647,#165);
#119=LINE('',#649,#166);
#120=LINE('',#651,#167);
#121=LINE('',#652,#168);
#122=LINE('',#664,#169);
#123=LINE('',#665,#170);
#124=LINE('',#666,#171);
#125=LINE('',#669,#172);
#126=LINE('',#670,#173);
#127=LINE('',#672,#174);
#128=LINE('',#674,#175);
#129=LINE('',#676,#176);
#130=LINE('',#678,#177);
#131=LINE('',#680,#178);
#132=LINE('',#682,#179);
#133=LINE('',#684,#180);
#134=VECTOR('',#469,10.);
#135=VECTOR('',#470,10.);
#136=VECTOR('',#471,10.);
#137=VECTOR('',#472,10.);
#138=VECTOR('',#475,10.);
#139=VECTOR('',#476,10.);
#140=VECTOR('',#477,10.);
#141=VECTOR('',#478,10.);
#142=VECTOR('',#481,10.);
#143=VECTOR('',#482,10.);
#144=VECTOR('',#485,10.);
#145=VECTOR('',#486,10.);
#146=VECTOR('',#487,10.);
#147=VECTOR('',#490,10.);
#148=VECTOR('',#491,10.);
#149=VECTOR('',#494,10.);
#150=VECTOR('',#495,10.);
#151=VECTOR('',#496,10.);
#152=VECTOR('',#499,10.);
#153=VECTOR('',#500,10.);
#154=VECTOR('',#503,10.);
#155=VECTOR('',#504,10.);
#156=VECTOR('',#505,10.);
#157=VECTOR('',#506,10.);
#158=VECTOR('',#507,10.);
#159=VECTOR('',#508,10.);
#160=VECTOR('',#521,10.);
#161=VECTOR('',#522,10.);
#162=VECTOR('',#523,10.);
#163=VECTOR('',#526,10.);
#164=VECTOR('',#527,10.);
#165=VECTOR('',#528,10.);
#166=VECTOR('',#529,10.);
#167=VECTOR('',#530,10.);
#168=VECTOR('',#531,10.);
#169=VECTOR('',#542,10.);
#170=VECTOR('',#543,10.);
#171=VECTOR('',#544,10.);
#172=VECTOR('',#547,10.);
#173=VECTOR('',#548,10.);
#174=VECTOR('',#551,10.);
#175=VECTOR('',#554,10.);
#176=VECTOR('',#557,1.45);
#177=VECTOR('',#560,1.45);
#178=VECTOR('',#563,1.45);
#179=VECTOR('',#566,1.45);
#180=VECTOR('',#569,10.);
#181=VERTEX_POINT('',#576);
#182=VERTEX_POINT('',#577);
#183=VERTEX_POINT('',#579);
#184=VERTEX_POINT('',#581);
#185=VERTEX_POINT('',#585);
#186=VERTEX_POINT('',#586);
#187=VERTEX_POINT('',#588);
#188=VERTEX_POINT('',#590);
#189=VERTEX_POINT('',#597);
#190=VERTEX_POINT('',#599);
#191=VERTEX_POINT('',#606);
#192=VERTEX_POINT('',#608);
#193=VERTEX_POINT('',#612);
#194=VERTEX_POINT('',#616);
#195=VERTEX_POINT('',#618);
#196=VERTEX_POINT('',#620);
#197=VERTEX_POINT('',#622);
#198=VERTEX_POINT('',#624);
#199=VERTEX_POINT('',#628);
#200=VERTEX_POINT('',#630);
#201=VERTEX_POINT('',#632);
#202=VERTEX_POINT('',#634);
#203=VERTEX_POINT('',#637);
#204=VERTEX_POINT('',#639);
#205=VERTEX_POINT('',#643);
#206=VERTEX_POINT('',#645);
#207=VERTEX_POINT('',#648);
#208=VERTEX_POINT('',#650);
#209=VERTEX_POINT('',#653);
#210=VERTEX_POINT('',#655);
#211=VERTEX_POINT('',#657);
#212=VERTEX_POINT('',#659);
#213=VERTEX_POINT('',#662);
#214=VERTEX_POINT('',#663);
#215=VERTEX_POINT('',#668);
#216=EDGE_CURVE('',#181,#182,#87,.T.);
#217=EDGE_CURVE('',#182,#183,#88,.T.);
#218=EDGE_CURVE('',#183,#184,#89,.T.);
#219=EDGE_CURVE('',#181,#184,#90,.T.);
#220=EDGE_CURVE('',#185,#186,#91,.T.);
#221=EDGE_CURVE('',#186,#187,#92,.T.);
#222=EDGE_CURVE('',#187,#188,#93,.T.);
#223=EDGE_CURVE('',#188,#185,#94,.T.);
#224=EDGE_CURVE('',#182,#187,#95,.T.);
#225=EDGE_CURVE('',#186,#183,#96,.T.);
#226=EDGE_CURVE('',#189,#185,#97,.T.);
#227=EDGE_CURVE('',#188,#190,#98,.T.);
#228=EDGE_CURVE('',#190,#189,#99,.T.);
#229=EDGE_CURVE('',#184,#189,#100,.T.);
#230=EDGE_CURVE('',#190,#181,#101,.T.);
#231=EDGE_CURVE('',#183,#191,#102,.T.);
#232=EDGE_CURVE('',#192,#191,#103,.T.);
#233=EDGE_CURVE('',#184,#192,#104,.T.);
#234=EDGE_CURVE('',#186,#193,#105,.T.);
#235=EDGE_CURVE('',#191,#193,#106,.T.);
#236=EDGE_CURVE('',#185,#194,#107,.T.);
#237=EDGE_CURVE('',#195,#194,#108,.T.);
#238=EDGE_CURVE('',#195,#196,#109,.F.);
#239=EDGE_CURVE('',#196,#197,#110,.T.);
#240=EDGE_CURVE('',#197,#198,#111,.T.);
#241=EDGE_CURVE('',#193,#198,#112,.T.);
#242=EDGE_CURVE('',#199,#199,#27,.T.);
#243=EDGE_CURVE('',#200,#200,#28,.T.);
#244=EDGE_CURVE('',#201,#201,#29,.T.);
#245=EDGE_CURVE('',#202,#202,#30,.T.);
#246=EDGE_CURVE('',#197,#203,#113,.T.);
#247=EDGE_CURVE('',#204,#203,#114,.F.);
#248=EDGE_CURVE('',#198,#204,#115,.T.);
#249=EDGE_CURVE('',#205,#195,#116,.F.);
#250=EDGE_CURVE('',#194,#206,#117,.T.);
#251=EDGE_CURVE('',#206,#192,#118,.T.);
#252=EDGE_CURVE('',#204,#207,#119,.F.);
#253=EDGE_CURVE('',#207,#208,#120,.F.);
#254=EDGE_CURVE('',#208,#205,#121,.F.);
#255=EDGE_CURVE('',#209,#209,#31,.T.);
#256=EDGE_CURVE('',#210,#210,#32,.T.);
#257=EDGE_CURVE('',#211,#211,#33,.T.);
#258=EDGE_CURVE('',#212,#212,#34,.T.);
#259=EDGE_CURVE('',#213,#214,#122,.T.);
#260=EDGE_CURVE('',#213,#208,#123,.F.);
#261=EDGE_CURVE('',#214,#207,#124,.T.);
#262=EDGE_CURVE('',#215,#213,#125,.T.);
#263=EDGE_CURVE('',#215,#205,#126,.F.);
#264=EDGE_CURVE('',#214,#203,#127,.T.);
#265=EDGE_CURVE('',#196,#215,#128,.T.);
#266=EDGE_CURVE('',#210,#202,#129,.T.);
#267=EDGE_CURVE('',#209,#201,#130,.T.);
#268=EDGE_CURVE('',#212,#200,#131,.T.);
#269=EDGE_CURVE('',#211,#199,#132,.T.);
#270=EDGE_CURVE('',#189,#206,#133,.T.);
#271=ORIENTED_EDGE('',*,*,#216,.T.);
#272=ORIENTED_EDGE('',*,*,#217,.T.);
#273=ORIENTED_EDGE('',*,*,#218,.T.);
#274=ORIENTED_EDGE('',*,*,#219,.F.);
#275=ORIENTED_EDGE('',*,*,#220,.T.);
#276=ORIENTED_EDGE('',*,*,#221,.T.);
#277=ORIENTED_EDGE('',*,*,#222,.T.);
#278=ORIENTED_EDGE('',*,*,#223,.T.);
#279=ORIENTED_EDGE('',*,*,#224,.T.);
#280=ORIENTED_EDGE('',*,*,#221,.F.);
#281=ORIENTED_EDGE('',*,*,#225,.T.);
#282=ORIENTED_EDGE('',*,*,#217,.F.);
#283=ORIENTED_EDGE('',*,*,#226,.T.);
#284=ORIENTED_EDGE('',*,*,#223,.F.);
#285=ORIENTED_EDGE('',*,*,#227,.T.);
#286=ORIENTED_EDGE('',*,*,#228,.T.);
#287=ORIENTED_EDGE('',*,*,#229,.T.);
#288=ORIENTED_EDGE('',*,*,#228,.F.);
#289=ORIENTED_EDGE('',*,*,#230,.T.);
#290=ORIENTED_EDGE('',*,*,#219,.T.);
#291=ORIENTED_EDGE('',*,*,#218,.F.);
#292=ORIENTED_EDGE('',*,*,#231,.T.);
#293=ORIENTED_EDGE('',*,*,#232,.F.);
#294=ORIENTED_EDGE('',*,*,#233,.F.);
#295=ORIENTED_EDGE('',*,*,#225,.F.);
#296=ORIENTED_EDGE('',*,*,#234,.T.);
#297=ORIENTED_EDGE('',*,*,#235,.F.);
#298=ORIENTED_EDGE('',*,*,#231,.F.);
#299=ORIENTED_EDGE('',*,*,#220,.F.);
#300=ORIENTED_EDGE('',*,*,#236,.T.);
#301=ORIENTED_EDGE('',*,*,#237,.F.);
#302=ORIENTED_EDGE('',*,*,#238,.T.);
#303=ORIENTED_EDGE('',*,*,#239,.T.);
#304=ORIENTED_EDGE('',*,*,#240,.T.);
#305=ORIENTED_EDGE('',*,*,#241,.F.);
#306=ORIENTED_EDGE('',*,*,#234,.F.);
#307=ORIENTED_EDGE('',*,*,#222,.F.);
#308=ORIENTED_EDGE('',*,*,#224,.F.);
#309=ORIENTED_EDGE('',*,*,#216,.F.);
#310=ORIENTED_EDGE('',*,*,#230,.F.);
#311=ORIENTED_EDGE('',*,*,#227,.F.);
#312=ORIENTED_EDGE('',*,*,#242,.F.);
#313=ORIENTED_EDGE('',*,*,#243,.F.);
#314=ORIENTED_EDGE('',*,*,#244,.F.);
#315=ORIENTED_EDGE('',*,*,#245,.F.);
#316=ORIENTED_EDGE('',*,*,#240,.F.);
#317=ORIENTED_EDGE('',*,*,#246,.T.);
#318=ORIENTED_EDGE('',*,*,#247,.F.);
#319=ORIENTED_EDGE('',*,*,#248,.F.);
#320=ORIENTED_EDGE('',*,*,#249,.T.);
#321=ORIENTED_EDGE('',*,*,#237,.T.);
#322=ORIENTED_EDGE('',*,*,#250,.T.);
#323=ORIENTED_EDGE('',*,*,#251,.T.);
#324=ORIENTED_EDGE('',*,*,#232,.T.);
#325=ORIENTED_EDGE('',*,*,#235,.T.);
#326=ORIENTED_EDGE('',*,*,#241,.T.);
#327=ORIENTED_EDGE('',*,*,#248,.T.);
#328=ORIENTED_EDGE('',*,*,#252,.T.);
#329=ORIENTED_EDGE('',*,*,#253,.T.);
#330=ORIENTED_EDGE('',*,*,#254,.T.);
#331=ORIENTED_EDGE('',*,*,#255,.T.);
#332=ORIENTED_EDGE('',*,*,#256,.T.);
#333=ORIENTED_EDGE('',*,*,#257,.T.);
#334=ORIENTED_EDGE('',*,*,#258,.T.);
#335=ORIENTED_EDGE('',*,*,#259,.F.);
#336=ORIENTED_EDGE('',*,*,#260,.T.);
#337=ORIENTED_EDGE('',*,*,#253,.F.);
#338=ORIENTED_EDGE('',*,*,#261,.F.);
#339=ORIENTED_EDGE('',*,*,#262,.F.);
#340=ORIENTED_EDGE('',*,*,#263,.T.);
#341=ORIENTED_EDGE('',*,*,#254,.F.);
#342=ORIENTED_EDGE('',*,*,#260,.F.);
#343=ORIENTED_EDGE('',*,*,#247,.T.);
#344=ORIENTED_EDGE('',*,*,#264,.F.);
#345=ORIENTED_EDGE('',*,*,#261,.T.);
#346=ORIENTED_EDGE('',*,*,#252,.F.);
#347=ORIENTED_EDGE('',*,*,#265,.F.);
#348=ORIENTED_EDGE('',*,*,#238,.F.);
#349=ORIENTED_EDGE('',*,*,#249,.F.);
#350=ORIENTED_EDGE('',*,*,#263,.F.);
#351=ORIENTED_EDGE('',*,*,#256,.F.);
#352=ORIENTED_EDGE('',*,*,#266,.T.);
#353=ORIENTED_EDGE('',*,*,#245,.T.);
#354=ORIENTED_EDGE('',*,*,#266,.F.);
#355=ORIENTED_EDGE('',*,*,#255,.F.);
#356=ORIENTED_EDGE('',*,*,#267,.T.);
#357=ORIENTED_EDGE('',*,*,#244,.T.);
#358=ORIENTED_EDGE('',*,*,#267,.F.);
#359=ORIENTED_EDGE('',*,*,#258,.F.);
#360=ORIENTED_EDGE('',*,*,#268,.T.);
#361=ORIENTED_EDGE('',*,*,#243,.T.);
#362=ORIENTED_EDGE('',*,*,#268,.F.);
#363=ORIENTED_EDGE('',*,*,#257,.F.);
#364=ORIENTED_EDGE('',*,*,#269,.T.);
#365=ORIENTED_EDGE('',*,*,#242,.T.);
#366=ORIENTED_EDGE('',*,*,#269,.F.);
#367=ORIENTED_EDGE('',*,*,#229,.F.);
#368=ORIENTED_EDGE('',*,*,#233,.T.);
#369=ORIENTED_EDGE('',*,*,#251,.F.);
#370=ORIENTED_EDGE('',*,*,#270,.F.);
#371=ORIENTED_EDGE('',*,*,#226,.F.);
#372=ORIENTED_EDGE('',*,*,#270,.T.);
#373=ORIENTED_EDGE('',*,*,#250,.F.);
#374=ORIENTED_EDGE('',*,*,#236,.F.);
#375=ORIENTED_EDGE('',*,*,#262,.T.);
#376=ORIENTED_EDGE('',*,*,#259,.T.);
#377=ORIENTED_EDGE('',*,*,#264,.T.);
#378=ORIENTED_EDGE('',*,*,#246,.F.);
#379=ORIENTED_EDGE('',*,*,#239,.F.);
#380=ORIENTED_EDGE('',*,*,#265,.T.);
#381=PLANE('',#435);
#382=PLANE('',#436);
#383=PLANE('',#437);
#384=PLANE('',#438);
#385=PLANE('',#439);
#386=PLANE('',#440);
#387=PLANE('',#441);
#388=PLANE('',#442);
#389=PLANE('',#443);
#390=PLANE('',#448);
#391=PLANE('',#449);
#392=PLANE('',#454);
#393=PLANE('',#455);
#394=PLANE('',#456);
#395=PLANE('',#457);
#396=PLANE('',#462);
#397=PLANE('',#463);
#398=PLANE('',#464);
#399=ADVANCED_FACE('',(#35),#381,.T.);
#400=ADVANCED_FACE('',(#36),#382,.T.);
#401=ADVANCED_FACE('',(#37),#383,.T.);
#402=ADVANCED_FACE('',(#38),#384,.T.);
#403=ADVANCED_FACE('',(#39),#385,.T.);
#404=ADVANCED_FACE('',(#40),#386,.T.);
#405=ADVANCED_FACE('',(#41),#387,.T.);
#406=ADVANCED_FACE('',(#42),#388,.T.);
#407=ADVANCED_FACE('',(#43,#19,#20,#21,#22),#389,.F.);
#408=ADVANCED_FACE('',(#44),#390,.F.);
#409=ADVANCED_FACE('',(#45,#23,#24,#25,#26),#391,.T.);
#410=ADVANCED_FACE('',(#46),#392,.T.);
#411=ADVANCED_FACE('',(#47),#393,.T.);
#412=ADVANCED_FACE('',(#48),#394,.T.);
#413=ADVANCED_FACE('',(#49),#395,.T.);
#414=ADVANCED_FACE('',(#50),#15,.F.);
#415=ADVANCED_FACE('',(#51),#16,.F.);
#416=ADVANCED_FACE('',(#52),#17,.F.);
#417=ADVANCED_FACE('',(#53),#18,.F.);
#418=ADVANCED_FACE('',(#54),#396,.T.);
#419=ADVANCED_FACE('',(#55),#397,.T.);
#420=ADVANCED_FACE('',(#56),#398,.T.);
#421=CLOSED_SHELL('',(#399,#400,#401,#402,#403,#404,#405,#406,#407,#408,
#409,#410,#411,#412,#413,#414,#415,#416,#417,#418,#419,#420));
#422=DERIVED_UNIT_ELEMENT(#424,1.);
#423=DERIVED_UNIT_ELEMENT(#692,-3.);
#424=(
MASS_UNIT()
NAMED_UNIT(*)
SI_UNIT(.KILO.,.GRAM.)
);
#425=DERIVED_UNIT((#422,#423));
#426=MEASURE_REPRESENTATION_ITEM('density measure',
POSITIVE_RATIO_MEASURE(7850.),#425);
#427=PROPERTY_DEFINITION_REPRESENTATION(#432,#429);
#428=PROPERTY_DEFINITION_REPRESENTATION(#433,#430);
#429=REPRESENTATION('material name',(#431),#689);
#430=REPRESENTATION('density',(#426),#689);
#431=DESCRIPTIVE_REPRESENTATION_ITEM('Steel','Steel');
#432=PROPERTY_DEFINITION('material property','material name',#699);
#433=PROPERTY_DEFINITION('material property','density of part',#699);
#434=AXIS2_PLACEMENT_3D('',#574,#465,#466);
#435=AXIS2_PLACEMENT_3D('',#575,#467,#468);
#436=AXIS2_PLACEMENT_3D('',#584,#473,#474);
#437=AXIS2_PLACEMENT_3D('',#593,#479,#480);
#438=AXIS2_PLACEMENT_3D('',#596,#483,#484);
#439=AXIS2_PLACEMENT_3D('',#602,#488,#489);
#440=AXIS2_PLACEMENT_3D('',#605,#492,#493);
#441=AXIS2_PLACEMENT_3D('',#611,#497,#498);
#442=AXIS2_PLACEMENT_3D('',#615,#501,#502);
#443=AXIS2_PLACEMENT_3D('',#627,#509,#510);
#444=AXIS2_PLACEMENT_3D('',#629,#511,#512);
#445=AXIS2_PLACEMENT_3D('',#631,#513,#514);
#446=AXIS2_PLACEMENT_3D('',#633,#515,#516);
#447=AXIS2_PLACEMENT_3D('',#635,#517,#518);
#448=AXIS2_PLACEMENT_3D('',#636,#519,#520);
#449=AXIS2_PLACEMENT_3D('',#642,#524,#525);
#450=AXIS2_PLACEMENT_3D('',#654,#532,#533);
#451=AXIS2_PLACEMENT_3D('',#656,#534,#535);
#452=AXIS2_PLACEMENT_3D('',#658,#536,#537);
#453=AXIS2_PLACEMENT_3D('',#660,#538,#539);
#454=AXIS2_PLACEMENT_3D('',#661,#540,#541);
#455=AXIS2_PLACEMENT_3D('',#667,#545,#546);
#456=AXIS2_PLACEMENT_3D('',#671,#549,#550);
#457=AXIS2_PLACEMENT_3D('',#673,#552,#553);
#458=AXIS2_PLACEMENT_3D('',#675,#555,#556);
#459=AXIS2_PLACEMENT_3D('',#677,#558,#559);
#460=AXIS2_PLACEMENT_3D('',#679,#561,#562);
#461=AXIS2_PLACEMENT_3D('',#681,#564,#565);
#462=AXIS2_PLACEMENT_3D('',#683,#567,#568);
#463=AXIS2_PLACEMENT_3D('',#685,#570,#571);
#464=AXIS2_PLACEMENT_3D('',#686,#572,#573);
#465=DIRECTION('axis',(0.,0.,1.));
#466=DIRECTION('refdir',(1.,0.,0.));
#467=DIRECTION('center_axis',(0.6278356907293,-0.325303466699119,-0.707106781186546));
#468=DIRECTION('ref_axis',(-0.747778709363586,0.,-0.663948041508166));
#469=DIRECTION('',(0.460048574492878,0.887893748771254,0.));
#470=DIRECTION('',(0.747778709363586,-5.89704322269717E-15,0.663948041508167));
#471=DIRECTION('',(-0.460048574492878,-0.887893748771254,0.));
#472=DIRECTION('',(0.395035611662144,-0.649594821992416,0.649594821992415));
#473=DIRECTION('center_axis',(0.,0.707106781186549,-0.707106781186546));
#474=DIRECTION('ref_axis',(-1.,0.,0.));
#475=DIRECTION('',(1.,0.,0.));
#476=DIRECTION('',(-0.395035611662145,-0.649594821992414,-0.649594821992416));
#477=DIRECTION('',(-1.,0.,0.));
#478=DIRECTION('',(-0.577350269189626,0.577350269189625,0.577350269189627));
#479=DIRECTION('center_axis',(0.6278356907293,0.325303466699119,-0.707106781186546));
#480=DIRECTION('ref_axis',(-0.747778709363585,0.,-0.663948041508167));
#481=DIRECTION('',(-0.460048574492878,0.887893748771254,0.));
#482=DIRECTION('',(0.460048574492878,-0.887893748771254,0.));
#483=DIRECTION('center_axis',(-0.707106781186548,0.,-0.707106781186547));
#484=DIRECTION('ref_axis',(-0.707106781186547,0.,0.707106781186548));
#485=DIRECTION('',(0.,1.,0.));
#486=DIRECTION('',(0.,-1.,0.));
#487=DIRECTION('',(-0.577350269189624,-0.577350269189627,0.577350269189626));
#488=DIRECTION('center_axis',(0.,-0.707106781186547,-0.707106781186548));
#489=DIRECTION('ref_axis',(-1.,0.,0.));
#490=DIRECTION('',(-1.,0.,0.));
#491=DIRECTION('',(1.,0.,0.));
#492=DIRECTION('center_axis',(0.887893748771254,-0.460048574492878,0.));
#493=DIRECTION('ref_axis',(0.460048574492878,0.887893748771254,0.));
#494=DIRECTION('',(0.,0.,1.));
#495=DIRECTION('',(0.460048574492878,0.887893748771254,0.));
#496=DIRECTION('',(0.,0.,1.));
#497=DIRECTION('center_axis',(0.887893748771254,0.460048574492878,0.));
#498=DIRECTION('ref_axis',(-0.460048574492878,0.887893748771254,0.));
#499=DIRECTION('',(0.,0.,1.));
#500=DIRECTION('',(-0.460048574492878,0.887893748771254,0.));
#501=DIRECTION('center_axis',(0.,1.,0.));
#502=DIRECTION('ref_axis',(-1.,0.,0.));
#503=DIRECTION('',(0.,0.,1.));
#504=DIRECTION('',(-1.,0.,0.));
#505=DIRECTION('',(0.,0.,1.));
#506=DIRECTION('',(1.,0.,0.));
#507=DIRECTION('',(0.,0.,1.));
#508=DIRECTION('',(-1.,0.,0.));
#509=DIRECTION('center_axis',(0.,0.,1.));
#510=DIRECTION('ref_axis',(1.,0.,0.));
#511=DIRECTION('center_axis',(0.,0.,-1.));
#512=DIRECTION('ref_axis',(1.,0.,0.));
#513=DIRECTION('center_axis',(0.,0.,-1.));
#514=DIRECTION('ref_axis',(1.,0.,0.));
#515=DIRECTION('center_axis',(0.,0.,-1.));
#516=DIRECTION('ref_axis',(1.,0.,0.));
#517=DIRECTION('center_axis',(0.,0.,-1.));
#518=DIRECTION('ref_axis',(1.,0.,0.));
#519=DIRECTION('center_axis',(1.,-3.94745958428994E-15,0.));
#520=DIRECTION('ref_axis',(0.,0.,1.));
#521=DIRECTION('',(-3.94745958428994E-15,-1.,0.));
#522=DIRECTION('',(0.,0.,1.));
#523=DIRECTION('',(-3.94745958428994E-15,-1.,0.));
#524=DIRECTION('center_axis',(0.,0.,1.));
#525=DIRECTION('ref_axis',(1.,0.,0.));
#526=DIRECTION('',(0.,-1.,0.));
#527=DIRECTION('',(0.,-1.,0.));
#528=DIRECTION('',(1.,0.,0.));
#529=DIRECTION('',(-1.,0.,0.));
#530=DIRECTION('',(0.,1.,0.));
#531=DIRECTION('',(1.,0.,0.));
#532=DIRECTION('center_axis',(0.,0.,-1.));
#533=DIRECTION('ref_axis',(1.,0.,0.));
#534=DIRECTION('center_axis',(0.,0.,-1.));
#535=DIRECTION('ref_axis',(1.,0.,0.));
#536=DIRECTION('center_axis',(0.,0.,-1.));
#537=DIRECTION('ref_axis',(1.,0.,0.));
#538=DIRECTION('center_axis',(0.,0.,-1.));
#539=DIRECTION('ref_axis',(1.,0.,0.));
#540=DIRECTION('center_axis',(-1.,0.,0.));
#541=DIRECTION('ref_axis',(0.,-1.,0.));
#542=DIRECTION('',(0.,1.,0.));
#543=DIRECTION('',(0.,0.,-1.));
#544=DIRECTION('',(0.,0.,1.));
#545=DIRECTION('center_axis',(0.,1.,0.));
#546=DIRECTION('ref_axis',(-1.,0.,0.));
#547=DIRECTION('',(1.,0.,0.));
#548=DIRECTION('',(0.,0.,-1.));
#549=DIRECTION('center_axis',(0.,-1.,0.));
#550=DIRECTION('ref_axis',(1.,0.,0.));
#551=DIRECTION('',(-1.,0.,0.));
#552=DIRECTION('center_axis',(1.,0.,0.));
#553=DIRECTION('ref_axis',(0.,1.,0.));
#554=DIRECTION('',(0.,-1.,0.));
#555=DIRECTION('center_axis',(0.,0.,1.));
#556=DIRECTION('ref_axis',(1.,0.,0.));
#557=DIRECTION('',(0.,0.,-1.));
#558=DIRECTION('center_axis',(0.,0.,1.));
#559=DIRECTION('ref_axis',(1.,0.,0.));
#560=DIRECTION('',(0.,0.,-1.));
#561=DIRECTION('center_axis',(0.,0.,1.));
#562=DIRECTION('ref_axis',(1.,0.,0.));
#563=DIRECTION('',(0.,0.,-1.));
#564=DIRECTION('center_axis',(0.,0.,1.));
#565=DIRECTION('ref_axis',(1.,0.,0.));
#566=DIRECTION('',(0.,0.,-1.));
#567=DIRECTION('center_axis',(0.,-1.,0.));
#568=DIRECTION('ref_axis',(1.,0.,0.));
#569=DIRECTION('',(0.,0.,1.));
#570=DIRECTION('center_axis',(-1.,0.,0.));
#571=DIRECTION('ref_axis',(0.,-1.,0.));
#572=DIRECTION('center_axis',(0.,0.,1.));
#573=DIRECTION('ref_axis',(1.,0.,0.));
#574=CARTESIAN_POINT('',(0.,0.,0.));
#575=CARTESIAN_POINT('Origin',(53.4105778756295,1.04675705477568,0.5));
#576=CARTESIAN_POINT('',(47.6418738292117,-9.,0.));
#577=CARTESIAN_POINT('',(67.1237391141858,28.6,0.));
#578=CARTESIAN_POINT('',(52.9666310012439,1.27678134202212,0.));
#579=CARTESIAN_POINT('',(68.25,28.6,1.));
#580=CARTESIAN_POINT('',(67.1237391141858,28.6,0.));
#581=CARTESIAN_POINT('',(48.25,-10.,1.));
#582=CARTESIAN_POINT('',(53.8545247500152,0.816732767529246,1.));
#583=CARTESIAN_POINT('',(47.6418738292117,-9.,0.));
#584=CARTESIAN_POINT('Origin',(47.4572181459859,66.7,0.5));
#585=CARTESIAN_POINT('',(-10.,67.2,1.));
#586=CARTESIAN_POINT('',(48.25,67.2,1.));
#587=CARTESIAN_POINT('',(47.4572181459859,67.2,1.));
#588=CARTESIAN_POINT('',(47.6418738292117,66.2,0.));
#589=CARTESIAN_POINT('',(48.25,67.2,1.));
#590=CARTESIAN_POINT('',(-9.,66.2,0.));
#591=CARTESIAN_POINT('',(47.4572181459859,66.2,0.));
#592=CARTESIAN_POINT('',(-9.,66.2,0.));
#593=CARTESIAN_POINT('Origin',(67.633058416864,28.7038555006419,0.5));
#594=CARTESIAN_POINT('',(67.1891115424783,28.4738312133954,0.));
#595=CARTESIAN_POINT('',(68.0770052912496,28.9338797878883,1.));
#596=CARTESIAN_POINT('Origin',(-9.5,42.7313994017413,0.5));
#597=CARTESIAN_POINT('',(-10.,-10.,1.));
#598=CARTESIAN_POINT('',(-10.,42.7313994017413,1.));
#599=CARTESIAN_POINT('',(-9.,-9.,0.));
#600=CARTESIAN_POINT('',(-9.,42.7313994017413,0.));
#601=CARTESIAN_POINT('',(-9.,-9.,0.));
#602=CARTESIAN_POINT('Origin',(18.3322181459859,-9.5,0.5));
#603=CARTESIAN_POINT('',(18.3322181459859,-10.,1.));
#604=CARTESIAN_POINT('',(18.3322181459859,-9.,0.));
#605=CARTESIAN_POINT('Origin',(48.25,-10.,0.));
#606=CARTESIAN_POINT('',(68.25,28.6,13.));
#607=CARTESIAN_POINT('',(68.25,28.6,0.));
#608=CARTESIAN_POINT('',(48.25,-10.,13.));
#609=CARTESIAN_POINT('',(68.25,28.6,13.));
#610=CARTESIAN_POINT('',(48.25,-10.,0.));
#611=CARTESIAN_POINT('Origin',(68.25,28.6,0.));
#612=CARTESIAN_POINT('',(48.25,67.2,13.));
#613=CARTESIAN_POINT('',(48.25,67.2,0.));
#614=CARTESIAN_POINT('',(48.25,67.2,13.));
#615=CARTESIAN_POINT('Origin',(48.25,67.2,0.));
#616=CARTESIAN_POINT('',(-10.,67.2,13.));
#617=CARTESIAN_POINT('',(-10.,67.2,0.));
#618=CARTESIAN_POINT('',(-0.199999999999998,67.2,13.));
#619=CARTESIAN_POINT('',(48.25,67.2,13.));
#620=CARTESIAN_POINT('',(-0.2,67.2,3.00000004470348));
#621=CARTESIAN_POINT('',(-0.199999999999996,67.2,0.));
#622=CARTESIAN_POINT('',(18.0000002682209,67.1999999999999,3.00000004470348));
#623=CARTESIAN_POINT('',(24.125,67.2,3.00000004470348));
#624=CARTESIAN_POINT('',(18.0000002682209,67.1999999999999,13.0000001937151));
#625=CARTESIAN_POINT('',(18.0000002682209,67.2,1.50000002235174));
#626=CARTESIAN_POINT('',(48.25,67.2,13.));
#627=CARTESIAN_POINT('Origin',(46.6644362919718,18.2627988034826,0.));
#628=CARTESIAN_POINT('',(41.8,62.2,0.));
#629=CARTESIAN_POINT('Origin',(43.25,62.2,0.));
#630=CARTESIAN_POINT('',(41.8,-5.,0.));
#631=CARTESIAN_POINT('Origin',(43.25,-5.,0.));
#632=CARTESIAN_POINT('',(-6.45,62.2,0.));
#633=CARTESIAN_POINT('Origin',(-5.,62.2,0.));
#634=CARTESIAN_POINT('',(-6.45,-5.,0.));
#635=CARTESIAN_POINT('Origin',(-5.,-5.,0.));
#636=CARTESIAN_POINT('Origin',(18.0000002682209,67.1999999999999,3.00000004470348));
#637=CARTESIAN_POINT('',(18.0000002682209,57.4,3.00000004470348));
#638=CARTESIAN_POINT('',(18.0000002682209,67.1999999999999,3.00000004470348));
#639=CARTESIAN_POINT('',(18.0000002682209,57.4,13.));
#640=CARTESIAN_POINT('',(18.0000002682209,57.4,1.50000002235174));
#641=CARTESIAN_POINT('',(18.0000002682208,42.7313994017413,13.));
#642=CARTESIAN_POINT('Origin',(46.6644362919718,18.2627988034826,13.));
#643=CARTESIAN_POINT('',(-0.199999999999999,-0.2,13.));
#644=CARTESIAN_POINT('',(-0.199999999999996,9.1313994017413,13.));
#645=CARTESIAN_POINT('',(-10.,-10.,13.));
#646=CARTESIAN_POINT('',(-10.,67.2,13.));
#647=CARTESIAN_POINT('',(-10.,-10.,13.));
#648=CARTESIAN_POINT('',(38.45,57.4,13.));
#649=CARTESIAN_POINT('',(23.3322181459859,57.4,13.));
#650=CARTESIAN_POINT('',(38.45,-0.199999999999999,13.));
#651=CARTESIAN_POINT('',(38.45,37.7313994017413,13.));
#652=CARTESIAN_POINT('',(42.4572181459859,-0.2,13.));
#653=CARTESIAN_POINT('',(-6.45,62.2,13.));
#654=CARTESIAN_POINT('Origin',(-5.,62.2,13.));
#655=CARTESIAN_POINT('',(-6.45,-5.,13.));
#656=CARTESIAN_POINT('Origin',(-5.,-5.,13.));
#657=CARTESIAN_POINT('',(41.8,62.2,13.));
#658=CARTESIAN_POINT('Origin',(43.25,62.2,13.));
#659=CARTESIAN_POINT('',(41.8,-5.,13.));
#660=CARTESIAN_POINT('Origin',(43.25,-5.,13.));
#661=CARTESIAN_POINT('Origin',(38.45,57.2,0.));
#662=CARTESIAN_POINT('',(38.45,-0.199999999999999,3.));
#663=CARTESIAN_POINT('',(38.45,57.4,3.));
#664=CARTESIAN_POINT('',(38.45,42.9,3.));
#665=CARTESIAN_POINT('',(38.45,-0.2,0.));
#666=CARTESIAN_POINT('',(38.45,57.4,0.));
#667=CARTESIAN_POINT('Origin',(38.25,-0.2,0.));
#668=CARTESIAN_POINT('',(-0.2,-0.2,3.));
#669=CARTESIAN_POINT('',(33.6875,-0.2,3.));
#670=CARTESIAN_POINT('',(-0.2,-0.2,0.));
#671=CARTESIAN_POINT('Origin',(0.,57.4,0.));
#672=CARTESIAN_POINT('',(14.5625,57.4,3.));
#673=CARTESIAN_POINT('Origin',(-0.2,0.,0.));
#674=CARTESIAN_POINT('',(-0.2,14.3,3.));
#675=CARTESIAN_POINT('Origin',(-5.,-5.,0.));
#676=CARTESIAN_POINT('',(-6.45,-5.,0.));
#677=CARTESIAN_POINT('Origin',(-5.,62.2,0.));
#678=CARTESIAN_POINT('',(-6.45,62.2,0.));
#679=CARTESIAN_POINT('Origin',(43.25,-5.,0.));
#680=CARTESIAN_POINT('',(41.8,-5.,0.));
#681=CARTESIAN_POINT('Origin',(43.25,62.2,0.));
#682=CARTESIAN_POINT('',(41.8,62.2,0.));
#683=CARTESIAN_POINT('Origin',(-10.,-10.,0.));
#684=CARTESIAN_POINT('',(-10.,-10.,0.));
#685=CARTESIAN_POINT('Origin',(-10.,67.2,0.));
#686=CARTESIAN_POINT('Origin',(29.125,28.6,3.));
#687=UNCERTAINTY_MEASURE_WITH_UNIT(LENGTH_MEASURE(0.01),#691,
'DISTANCE_ACCURACY_VALUE',
'Maximum model space distance between geometric entities at asserted c
onnectivities');
#688=UNCERTAINTY_MEASURE_WITH_UNIT(LENGTH_MEASURE(0.01),#691,
'DISTANCE_ACCURACY_VALUE',
'Maximum model space distance between geometric entities at asserted c
onnectivities');
#689=(
GEOMETRIC_REPRESENTATION_CONTEXT(3)
GLOBAL_UNCERTAINTY_ASSIGNED_CONTEXT((#687))
GLOBAL_UNIT_ASSIGNED_CONTEXT((#691,#693,#694))
REPRESENTATION_CONTEXT('','3D')
);
#690=(
GEOMETRIC_REPRESENTATION_CONTEXT(3)
GLOBAL_UNCERTAINTY_ASSIGNED_CONTEXT((#688))
GLOBAL_UNIT_ASSIGNED_CONTEXT((#691,#693,#694))
REPRESENTATION_CONTEXT('','3D')
);
#691=(
LENGTH_UNIT()
NAMED_UNIT(*)
SI_UNIT(.MILLI.,.METRE.)
);
#692=(
LENGTH_UNIT()
NAMED_UNIT(*)
SI_UNIT($,.METRE.)
);
#693=(
NAMED_UNIT(*)
PLANE_ANGLE_UNIT()
SI_UNIT($,.RADIAN.)
);
#694=(
NAMED_UNIT(*)
SI_UNIT($,.STERADIAN.)
SOLID_ANGLE_UNIT()
);
#695=SHAPE_DEFINITION_REPRESENTATION(#696,#697);
#696=PRODUCT_DEFINITION_SHAPE('',$,#699);
#697=SHAPE_REPRESENTATION('',(#434),#689);
#698=PRODUCT_DEFINITION_CONTEXT('part definition',#703,'design');
#699=PRODUCT_DEFINITION('2026-07-19-22-39-06-465','PHM Pad Gen I',#700,
#698);
#700=PRODUCT_DEFINITION_FORMATION('',$,#705);
#701=PRODUCT_RELATED_PRODUCT_CATEGORY('PHM Pad Gen I','PHM Pad Gen I',(#705));
#702=APPLICATION_PROTOCOL_DEFINITION('international standard',
'automotive_design',2009,#703);
#703=APPLICATION_CONTEXT(
'Core Data for Automotive Mechanical Design Process');
#704=PRODUCT_CONTEXT('part definition',#703,'mechanical');
#705=PRODUCT('2026-07-19-22-39-06-465','PHM Pad Gen I',$,(#704));
#706=PRESENTATION_STYLE_ASSIGNMENT((#707));
#707=SURFACE_STYLE_USAGE(.BOTH.,#708);
#708=SURFACE_SIDE_STYLE('',(#709));
#709=SURFACE_STYLE_FILL_AREA(#710);
#710=FILL_AREA_STYLE('Steel - Satin',(#711));
#711=FILL_AREA_STYLE_COLOUR('Steel - Satin',#712);
#712=COLOUR_RGB('Steel - Satin',0.627450980392157,0.627450980392157,0.627450980392157);
ENDSEC;
END-ISO-10303-21;
